HIERARCHY
ROOT hip
{
	OFFSET 0.000000 0.000000 0.000000 
	CHANNELS 6 Xposition Yposition Zposition Xrotation Zrotation Yrotation
	JOINT abdomen
	{
		OFFSET 0.000000 3.402643 0.000000 
		CHANNELS 3 Xrotation Zrotation Yrotation
		JOINT chest
		{
			OFFSET 0.000000 8.438565 -0.680529 
			CHANNELS 3 Xrotation Zrotation Yrotation
			JOINT neck
			{
				OFFSET 0.000000 10.207942 -0.272212 
				CHANNELS 3 Xrotation Zrotation Yrotation
				JOINT head
				{
					OFFSET 0.000000 3.130431 0.000000 
					CHANNELS 3 Xrotation Zrotation Yrotation
					End Site
					{
						OFFSET 0.000000 3.130435 0.000000 
					}
				}
			}
			JOINT lCollar
			{
				OFFSET 3.470700 6.669187 -0.816635 
				CHANNELS 3 Yrotation Zrotation Xrotation
				JOINT lShldr
				{
					OFFSET 3.198488 0.000000 0.000000 
					CHANNELS 3 Zrotation Yrotation Xrotation
					JOINT lForeArm
					{
						OFFSET 10.139888 0.000000 0.000000 
						CHANNELS 3 Yrotation Zrotation Xrotation
						JOINT lHand
						{
							OFFSET 8.370511 0.000000 0.000000 
							CHANNELS 3 Zrotation Yrotation Xrotation
							End Site
							{
								OFFSET 4.083176 0.000000 0.000000 
							}
						}
					}
				}
			}
			JOINT rCollar
			{
				OFFSET -3.470700 6.669187 -0.816635 
				CHANNELS 3 Yrotation Zrotation Xrotation
				JOINT rShldr
				{
					OFFSET -3.198488 0.000000 0.000000 
					CHANNELS 3 Zrotation Yrotation Xrotation
					JOINT rForeArm
					{
						OFFSET -10.139888 0.000000 0.000000 
						CHANNELS 3 Yrotation Zrotation Xrotation
						JOINT rHand
						{
							OFFSET -8.370511 0.000000 0.000000 
							CHANNELS 3 Zrotation Yrotation Xrotation
							End Site
							{
								OFFSET -4.083176 0.000000 0.000000 
							}
						}
					}
				}
			}
		}
	}
	JOINT lThigh
	{
		OFFSET 5.308129 -1.633274 1.361059 
		CHANNELS 3 Xrotation Zrotation Yrotation
		JOINT lShin
		{
			OFFSET -2.041588 -20.007561 0.000000 
			CHANNELS 3 Xrotation Zrotation Yrotation
			JOINT lFoot
			{
				OFFSET 0.000000 -19.190928 -1.224953 
				CHANNELS 3 Xrotation Yrotation Zrotation
				End Site
				{
					OFFSET 0.000000 -2.449906 4.627600 
				}
			}
		}
	}
	JOINT rThigh
	{
		OFFSET -5.308129 -1.633274 1.361059 
		CHANNELS 3 Xrotation Zrotation Yrotation
		JOINT rShin
		{
			OFFSET 2.041588 -20.007561 0.000000 
			CHANNELS 3 Xrotation Zrotation Yrotation
			JOINT rFoot
			{
				OFFSET 0.000000 -19.190928 -1.224953 
				CHANNELS 3 Xrotation Yrotation Zrotation
				End Site
				{
					OFFSET 0.000000 -2.449906 4.627600 
				}
			}
		}
	}
}
MOTION
Frames: 8
Frame Time: 0.011111
-98.879601 49.656006 -6.679460 3.948166 -7.872277 85.744614 12.365849 -9.302135 -2.890574 -18.455284 3.506433 0.302596 -8.719049 0.228422 0.122626 7.581346 -0.796543 -0.312937 2.785591 -10.422155 1.651026 -66.130013 -35.377911 -13.732666 -31.608986 1.302019 1.685399 8.524705 12.647240 -69.173233 2.149531 12.114442 0.054873 66.901970 33.981426 -130.350555 22.905334 3.098721 -0.602620 -8.534408 -12.637552 -109.097801 -22.549770 2.391551 1.503033 37.513603 -4.861209 -5.794248 -23.180496 -11.670027 -7.714172 -7.642025 -10.131076 -0.123530 66.077873 2.003228 8.620672 0.665425 8.452128 3.320261 
-98.186234 49.717525 -6.719228 3.981728 -7.370827 85.687477 12.959966 -9.395543 -2.987801 -18.628370 4.151937 0.294020 -8.584507 0.204820 0.165254 7.269412 -1.321813 -0.280811 2.785591 -10.422155 1.651026 -67.013885 -36.218472 -13.783210 -32.575058 1.736189 1.966143 8.524705 12.647240 -70.081429 2.149531 12.114442 0.054873 66.242310 33.095772 -130.210037 23.407347 2.823815 -0.488915 -8.534408 -12.637552 -108.345840 -20.845093 2.109154 1.322981 37.117626 -4.890475 -5.729558 -23.918726 -11.192874 -7.581071 -8.844764 -10.143319 0.044183 66.809509 1.915376 8.669194 -1.330737 8.064244 3.610749 
-97.510544 49.751850 -6.761714 3.883100 -6.849159 85.751328 13.574912 -9.107997 -3.027510 -18.690401 3.439800 0.257768 -8.560611 0.506318 0.200768 7.023532 -1.061570 -0.139596 2.785591 -10.422155 1.651026 -66.584976 -37.087479 -13.869288 -33.593204 2.189716 2.286880 8.524705 12.647240 -70.901741 2.149531 12.114442 0.054873 66.790985 32.615566 -130.132645 24.344658 2.315874 -0.263055 -8.534408 -12.637552 -107.886864 -19.247360 1.982863 1.182354 36.897499 -4.917524 -5.728658 -24.828058 -10.770502 -7.464656 -9.995966 -10.044911 0.041849 67.404884 1.837150 8.693261 -2.977590 8.035933 3.861757 
-96.850143 49.773266 -6.817454 3.720217 -6.364690 85.990410 14.186519 -8.606631 -3.303986 -18.760836 2.992530 0.148163 -8.511259 0.700686 0.313924 7.021151 -1.105805 0.112132 2.785591 -10.422155 1.651026 -66.539536 -38.084927 -14.126612 -34.684319 2.657212 2.622852 8.524705 12.647240 -71.800186 2.149531 12.114442 0.054873 66.909500 32.054268 -129.829620 25.157845 1.878373 -0.069224 -8.534408 -12.637552 -107.525528 -17.729494 1.776481 0.631694 36.612438 -4.913506 -5.692726 -25.701117 -10.049482 -7.181315 -11.156981 -9.966178 -0.295210 67.940468 1.769030 8.747381 -5.217078 8.164944 4.203473 
-96.184647 49.791283 -6.852123 3.592729 -5.965320 86.196564 14.653918 -8.214755 -3.645837 -18.693058 2.838164 0.031842 -8.642124 0.892372 0.334125 7.245286 -1.288585 0.170583 2.785591 -10.422155 1.651026 -66.699997 -39.234238 -8.439365 -35.798809 3.115670 2.975110 8.524705 12.647240 -66.809944 2.149531 12.114442 0.054873 66.831680 31.521870 -129.446213 25.846115 1.516718 0.102822 -8.534408 -12.637552 -107.213028 -16.297966 1.650043 0.249121 36.274872 -4.942945 -5.642656 -26.518528 -9.571560 -6.974662 -12.458230 -9.851395 -0.564903 68.351089 1.738867 8.748872 -7.775873 8.372188 4.576962 
-95.512009 49.797737 -6.874896 3.855367 -5.716422 86.315285 15.041998 -8.487930 -4.114164 -18.865856 3.591655 -0.072892 -8.858796 0.781742 0.373296 7.587176 -1.755001 0.200816 2.785591 -10.422155 1.651026 -67.538551 -40.046356 -3.046385 -37.008205 3.612409 3.372549 8.524705 12.647240 -61.995495 2.149531 12.114442 0.054873 66.000450 30.950294 -129.106277 26.729502 1.055465 0.337666 -8.534408 -12.637552 -106.978661 -14.919825 1.181163 0.103629 35.957413 -4.962333 -5.611216 -27.421154 -8.862494 -6.677951 -14.085444 -10.141970 -0.688904 68.574219 1.699199 8.788025 -9.923856 8.673310 4.930648 
-94.867920 49.778023 -6.924859 4.599994 -5.147767 86.613991 15.917314 -9.163539 -4.937333 -19.185907 4.295551 -0.233353 -8.842539 0.481994 0.480614 7.585454 -1.880728 0.359691 2.785591 -10.422155 1.651026 -68.184090 -40.735474 2.544487 -38.372402 4.136560 3.826955 8.524705 12.647240 -56.888073 2.149531 12.114442 0.054873 65.111382 30.923807 -128.727127 28.355694 0.240943 0.770646 -8.534408 -12.637552 -106.705215 -13.133487 0.019174 -0.462696 35.629917 -4.981981 -5.578218 -28.740351 -7.213682 -5.774326 -15.473205 -11.119349 -0.945469 68.575455 1.718629 8.762040 -11.806404 9.039324 5.252594 
-94.195282 49.768505 -6.943552 4.184739 -4.668382 87.061325 16.489567 -8.289965 -5.382881 -19.109571 3.819245 -0.417908 -8.665341 0.375757 0.638461 7.239959 -1.391886 0.692500 2.785591 -10.422155 1.651026 -67.889450 -41.631081 7.433599 -39.824009 4.677736 4.331398 8.524705 12.647240 -52.317760 2.149531 12.114442 0.054873 65.263313 29.992481 -128.269073 28.287453 0.274434 0.750451 -8.534408 -12.637552 -106.441544 -11.679545 0.155627 -1.343509 35.382515 -4.985670 -5.567410 -29.206631 -6.642820 -5.459132 -16.334084 -10.603134 -1.268114 68.253540 1.767557 8.750580 -13.796117 8.565627 5.349058 
